<?xml version="1.0" encoding="UTF-8"?> <svg xmlns="http://www.w3.org/2000/svg" id="Laag_1" data-name="Laag 1" viewBox="0 0 1000 1000"><defs><style>.cls-1{fill:#00adee;}</style></defs><title>Naamloos-3</title><path class="cls-1" d="M431.72,439.65a24.19,24.19,0,0,1,41.09-18.35l195-195a40,40,0,0,0-37.44-22,40.31,40.31,0,0,0-33.91,21.54L573.79,269.3a22.7,22.7,0,0,1-24.87,11.6l-4.2-.94a22.4,22.4,0,0,1-17.6-21l-2.1-49a40.14,40.14,0,1,0-80.2,3.43l2.09,48.92a22.4,22.4,0,0,1-15.78,22.48c-1.36.42-2.74.85-4.11,1.3a22.69,22.69,0,0,1-25.75-9.43L375,235.33a40.14,40.14,0,1,0-67.75,43.08l26.27,41.31a22.41,22.41,0,0,1-2.38,27.34c-1,1-2,2.1-2.93,3.18a22.83,22.83,0,0,1-27,4.74l-43.41-22.65a40.15,40.15,0,0,0-37.13,71.19l43.47,22.67a22.41,22.41,0,0,1,11.59,24.89l-.94,4.16a22.39,22.39,0,0,1-21,17.63l-49,2.1a40.14,40.14,0,1,0,3.44,80.2l48.91-2.09a22.41,22.41,0,0,1,22.48,15.78c.42,1.38.87,2.76,1.32,4.15a22.39,22.39,0,0,1-9.44,25.72L230.11,625a40.07,40.07,0,0,0-13.81,52.81L438.61,455.5A24,24,0,0,1,431.72,439.65Zm58.45-119.6a21.86,21.86,0,1,1-20.91,22.78A21.89,21.89,0,0,1,490.17,320.05ZM322.07,523.24A21.86,21.86,0,1,1,343,500.46,21.88,21.88,0,0,1,322.07,523.24Zm53.8-123.07a21.86,21.86,0,1,1,20.9-22.78A21.88,21.88,0,0,1,375.87,400.17Z"></path><path class="cls-1" d="M573.29,559.41a24.19,24.19,0,0,1-41.09,18.35l-195,195a40,40,0,0,0,37.44,22,40.31,40.31,0,0,0,33.91-21.54l22.67-43.48a22.71,22.71,0,0,1,24.88-11.59l4.19.94a22.4,22.4,0,0,1,17.61,21l2.1,49a40.14,40.14,0,1,0,80.2-3.43l-2.09-48.92a22.42,22.42,0,0,1,15.78-22.49q2-.62,4.11-1.29a22.68,22.68,0,0,1,25.75,9.43L630,763.73a40.14,40.14,0,0,0,67.75-43.08L671.5,679.34A22.39,22.39,0,0,1,673.88,652c1-1,2-2.1,2.93-3.18a22.83,22.83,0,0,1,27-4.74l43.41,22.64a40.14,40.14,0,0,0,37.13-71.18l-43.47-22.68A22.39,22.39,0,0,1,729.33,548l.93-4.16a22.41,22.41,0,0,1,21-17.63l49-2.1a40.14,40.14,0,0,0-3.44-80.21L747.94,446a22.43,22.43,0,0,1-22.49-15.78c-.41-1.38-.86-2.77-1.31-4.15a22.39,22.39,0,0,1,9.44-25.72l41.32-26.27a40.08,40.08,0,0,0,13.81-52.81L566.4,543.56A24,24,0,0,1,573.29,559.41ZM514.84,679a21.86,21.86,0,1,1,20.91-22.78A21.91,21.91,0,0,1,514.84,679Zm168.1-203.19A21.86,21.86,0,1,1,662,498.59,21.88,21.88,0,0,1,682.94,475.82Zm-53.8,123.07a21.86,21.86,0,1,1-20.9,22.78A21.88,21.88,0,0,1,629.14,598.89Z"></path><path class="cls-1" d="M845.13,156.42l-.07.06C756.73,67.35,634.29,12.06,499.19,12.06,230.55,12.06,12,230.61,12,499.25,12,633.09,66.26,754.5,153.93,842.64l.06-.06C242.33,931.71,364.76,987,499.87,987c268.64,0,487.19-218.55,487.19-487.19C987.06,366,932.8,244.56,845.13,156.42ZM499.19,82.65A414.65,414.65,0,0,1,762.7,176.82l-47,47L209.44,730.08l-32.68,32.68A414.65,414.65,0,0,1,82.59,499.25C82.59,269.53,269.47,82.65,499.19,82.65Zm.68,833.76a414.65,414.65,0,0,1-263.51-94.17l47-47L789.62,269,822.3,236.3a414.7,414.7,0,0,1,94.17,263.51C916.47,729.53,729.59,916.41,499.87,916.41Z"></path></svg> 