<?xml version="1.0" encoding="UTF-8"?> <svg xmlns="http://www.w3.org/2000/svg" id="Laag_1" data-name="Laag 1" viewBox="0 0 702.48 957.13"><defs><style>.cls-1{fill:#00adee;}</style></defs><title>Naamloos-1</title><path class="cls-1" d="M225.12,390.13l2.45-3.15,285-365.54L789.66,376.76a292.49,292.49,0,0,1-1.5,360.82,295.55,295.55,0,0,1-24.49,27.32,292.21,292.21,0,0,1-383,22.76.34.34,0,0,1-.16-.12c-.94-.7-1.84-1.41-2.73-2.12-94.8-75-110.91-213.17-35.91-308a220.53,220.53,0,0,1,24.66-26.39,218.91,218.91,0,0,0,51.11,272.73c.31.27,3.85,3.28,5.36,4.47,85.1,67.33,205.13,61.23,283.05-9.31v0a221,221,0,0,0,24.82-26.55c63.75-80.57,61.72-192.56,1.45-270.39L606.15,260.12l-93.61-120-94.4,121.06L280.82,437.25C185.36,563.4,207.92,744,332.56,842.58c1,.79,2,1.57,3,2.32a362.56,362.56,0,0,0,265.78,74c84.66-9.87,161.52-48,219.95-108.56q-9.79,15.23-21.18,29.63a365,365,0,0,1-575-449.84Z" transform="translate(-148.76 -21.44)"></path></svg> 