<?xml version="1.0" encoding="UTF-8"?> <svg xmlns="http://www.w3.org/2000/svg" id="Laag_1" data-name="Laag 1" viewBox="0 0 980.63 980.64"><defs><style>.cls-1{fill:#00adee;stroke:#fff;stroke-miterlimit:10;stroke-width:17.43px;}</style></defs><title>Naamloos-2</title><path class="cls-1" d="M955.06,435.5l-55.33-3.67a403,403,0,0,0-68.9-166.25l36.54-41.75c9.79-11.17,10.38-27.14,1.57-36l-56.82-56.81c-8.8-8.82-24.75-8.23-36,1.57l-41.75,36.53a402.89,402.89,0,0,0-166.25-68.89l-3.67-55.34c-1-14.83-11.85-26.54-24.31-26.54H459.82c-12.46,0-23.33,11.71-24.31,26.54l-3.68,55.34a403,403,0,0,0-166.24,68.89l-41.75-36.53c-11.17-9.8-27.15-10.39-36-1.57l-56.82,56.81c-8.81,8.82-8.22,24.77,1.57,36l36.54,41.75a403,403,0,0,0-68.9,166.25L45,435.5c-14.85,1-26.56,11.85-26.56,24.31v80.36c0,12.46,11.71,23.33,26.56,24.31l55.31,3.69a403,403,0,0,0,68.9,166.25l-36.54,41.75c-9.79,11.17-10.38,27.14-1.57,36l56.82,56.81c8.81,8.82,24.77,8.23,36-1.57l41.75-36.53a403,403,0,0,0,166.24,68.89l3.68,55.34c1,14.83,11.85,26.54,24.31,26.54h80.36c12.46,0,23.33-11.71,24.31-26.54l3.67-55.34a402.89,402.89,0,0,0,166.25-68.89l41.75,36.53c11.19,9.8,27.16,10.39,36,1.57l56.82-56.81c8.81-8.82,8.22-24.77-1.57-36l-36.54-41.75a403,403,0,0,0,68.9-166.25l55.33-3.69c14.83-1,26.54-11.85,26.54-24.31V459.81C981.6,447.35,969.89,436.48,955.06,435.5ZM754,514.25h48.9a300.78,300.78,0,0,1-78.62,189.82L689.71,669.5a14.27,14.27,0,0,0-20.18,20.19l34.57,34.57a300.78,300.78,0,0,1-189.82,78.61V754a14.26,14.26,0,0,0-28.52,0v48.89a300.89,300.89,0,0,1-189.83-78.61l34.58-34.57a14.28,14.28,0,0,0-20.19-20.19l-34.57,34.58a300.74,300.74,0,0,1-78.61-189.83H246a14.26,14.26,0,1,0,0-28.52H197.14a300.86,300.86,0,0,1,78.61-189.82l34.57,34.57a14.27,14.27,0,0,0,20.17-20.19l-34.58-34.57a300.78,300.78,0,0,1,189.83-78.61V246a14.26,14.26,0,0,0,28.52,0V197.11a300.86,300.86,0,0,1,189.82,78.61l-34.57,34.57a14.27,14.27,0,1,0,20.17,20.19l34.57-34.57a300.62,300.62,0,0,1,78.63,189.82H754a14.26,14.26,0,1,0,0,28.52Z" transform="translate(-9.69 -9.68)"></path><path class="cls-1" d="M657,485.73H544.12a46.55,46.55,0,0,0-34.14-31V294.51a14.26,14.26,0,1,0-28.52,0v163a46.38,46.38,0,1,0,62.68,56.78H657a14.27,14.27,0,0,0,0-28.54Z" transform="translate(-9.69 -9.68)"></path></svg> 